<mxfile>
  <diagram name="Page-1">
    <mxGraphModel>
      <root>
        <mxCell id="0"/>
        <mxCell id="1" parent="0"/>
        <mxCell id="2" value="量化因子" style="swimlane" parent="1" vertex="1">
          <mxGeometry x="100" y="40" width="120" height="60" as="geometry"/>
        </mxCell>
        <mxCell id="3" value="传统因子" style="swimlane" parent="1" vertex="1">
          <mxGeometry x="40" y="120" width="120" height="40" as="geometry"/>
        </mxCell>
        <mxCell id="4" value="LLM因子" style="swimlane" parent="1" vertex="1">
          <mxGeometry x="160" y="120" width="120" height="40" as="geometry"/>
        </mxCell>
        <mxCell id="5" value="" style="edgeStyle=orthogonalEdgeStyle;rounded=0;" parent="1" edge="1" source="2" target="3">
          <mxGeometry relative="1" as="geometry"/>
        </mxCell>
      </root>
    </mxGraphModel>
  </diagram>
</mxfile>
